<?xml version="1.0" encoding="UTF-8"?>
<!DOCTYPE svg PUBLIC "-//W3C//DTD SVG 1.1//EN" "http://www.w3.org/Graphics/SVG/1.1/DTD/svg11.dtd">
<!-- Creator: CorelDRAW X8 -->
<svg xmlns="http://www.w3.org/2000/svg" xml:space="preserve" width="194.372mm" height="160.843mm" version="1.1" style="shape-rendering:geometricPrecision; text-rendering:geometricPrecision; image-rendering:optimizeQuality; fill-rule:evenodd; clip-rule:evenodd"
viewBox="0 0 5742 4752"
 xmlns:xlink="http://www.w3.org/1999/xlink">
 <defs>
  <style type="text/css">
   <![CDATA[
    .fil1 {fill:#B0CB1F}
    .fil0 {fill:#2A2828}
   ]]>
  </style>
 </defs>
 <g id="Layer_x0020_1">
  <metadata id="CorelCorpID_0Corel-Layer"/>
  <circle class="fil0" cx="2871" cy="2376" r="2376"/>
  <g id="_2093885260992">
   <path class="fil1" d="M3255 3354m27 -1556c-25,10 -47,6 -64,-9 -19,-14 -34,-34 -44,-63 -11,-28 -17,-58 -20,-98 -2,-37 -2,-73 3,-111 3,-37 12,-69 25,-98 10,-28 27,-46 47,-54 27,-11 53,-16 79,-19 26,0 52,1 76,9 24,7 45,21 63,38 18,19 34,41 44,69 9,25 12,52 8,85 -4,32 -16,63 -35,95 -18,33 -42,61 -72,89 -31,29 -67,51 -110,67zm487 265c2,-13 11,-21 25,-26 14,-6 31,-10 50,-10 17,1 35,6 49,12 14,7 20,18 20,30 -2,37 -7,87 -15,154 -10,69 -21,145 -36,225 -14,81 -34,168 -55,255 -22,87 -47,169 -78,245 -30,76 -65,145 -105,201 -42,57 -88,96 -139,116 -67,26 -133,23 -195,-13 -62,-33 -108,-94 -139,-180 -12,-31 -20,-71 -23,-125 -4,-54 -6,-110 -4,-175 2,-63 4,-128 8,-199 7,-70 11,-136 15,-199 6,-84 12,-158 15,-219 3,-61 2,-101 -3,-116 -9,-23 2,-39 29,-47 27,-8 62,-9 101,-3 40,6 79,17 116,36 38,19 63,43 74,74 3,8 5,25 5,46 1,21 -1,48 -1,77 -1,31 -3,63 -6,98 -3,37 -4,71 -8,105 -5,57 -9,116 -13,180 -6,64 -10,125 -11,183 -4,59 -4,112 -3,159 2,49 9,85 17,108 5,13 9,18 13,17 31,-12 57,-42 84,-90 25,-46 48,-103 70,-168 21,-66 40,-138 57,-213 16,-76 31,-151 44,-223 11,-69 21,-132 27,-190 8,-55 14,-96 16,-123l-1 -2z"/>
   <path class="fil1" d="M3856 3121m992 -1467c5,-30 15,-53 31,-69 16,-13 33,-23 50,-22 16,1 33,9 46,25 13,17 19,38 17,70 -4,33 -7,82 -14,146 -5,67 -12,139 -22,219 -9,80 -24,162 -41,248 -17,85 -36,167 -60,241 -26,74 -53,140 -87,193 -34,54 -74,91 -117,108 -67,26 -131,22 -193,-14 -62,-33 -110,-93 -141,-179 -11,-29 -18,-67 -22,-116 -5,-46 -6,-98 -6,-155 0,-58 3,-118 7,-182 3,-63 8,-125 11,-186 -25,72 -50,148 -77,228 -28,80 -53,159 -74,234 -22,78 -41,148 -56,213 -16,66 -24,119 -27,161 0,7 2,14 5,20 0,7 1,11 2,13l10 15c4,4 6,8 8,14 2,6 4,11 7,14l0 -2c10,15 19,28 27,42 7,14 11,24 13,35 2,12 -3,23 -11,33 -8,11 -23,21 -45,30 -27,10 -56,14 -88,10 -31,-3 -64,-11 -96,-27 -31,-15 -60,-37 -86,-65 -27,-28 -49,-62 -65,-104 -13,-38 -22,-80 -28,-127 -5,-46 -7,-96 -6,-149 2,-51 4,-104 9,-158 6,-55 13,-111 19,-165 10,-93 16,-176 22,-255 7,-77 1,-136 -14,-178 -9,-23 2,-39 31,-53 30,-14 66,-18 109,-16 43,3 84,13 126,32 42,20 70,52 86,94 7,19 12,45 12,78 1,34 -1,73 -4,114 23,-68 46,-134 71,-199 23,-64 45,-123 67,-177 21,-51 42,-95 60,-128 18,-33 34,-54 46,-58 2,-1 6,-3 12,-5 6,-3 11,-2 18,-2 19,0 40,1 66,8 26,6 51,18 76,30 26,13 49,31 70,49 19,21 35,44 44,69 7,19 10,58 6,117 -3,61 -10,131 -16,209 -5,57 -10,119 -15,181 -7,64 -10,125 -12,181 -2,58 -2,110 0,158 1,49 8,85 17,110 4,11 8,16 10,15 21,-8 40,-32 57,-72 18,-40 35,-90 52,-151 15,-61 28,-126 41,-198 14,-70 23,-140 33,-208 9,-69 16,-133 22,-193 4,-57 8,-104 9,-140l-2 -4z"/>
   <path class="fil1" d="M4941 2700m768 -1891c4,11 0,32 -15,61 -15,30 -42,64 -82,101 -39,39 -93,82 -161,125 -68,43 -153,85 -253,124 -2,32 -3,66 -5,98 -5,32 -6,66 -10,99 -8,94 -15,187 -22,283 -6,96 -11,186 -12,270 -4,85 -2,158 2,226 4,68 11,120 25,157 13,34 29,47 49,39 39,-15 74,-48 107,-97 31,-47 61,-107 87,-174 26,-68 50,-142 73,-220 20,-77 39,-151 55,-222 14,-70 25,-134 34,-192 10,-56 16,-97 18,-124 2,-13 10,-21 25,-26 14,-6 31,-10 50,-10 16,1 34,4 48,10 14,7 20,18 20,30 -4,33 -9,83 -18,148 -9,68 -22,142 -40,226 -18,83 -40,168 -66,257 -25,89 -56,175 -93,254 -36,78 -77,149 -123,207 -48,60 -102,102 -162,125 -24,10 -56,12 -92,10 -38,-2 -76,-11 -114,-28 -39,-16 -77,-42 -110,-74 -33,-33 -61,-77 -80,-129 -11,-32 -19,-79 -22,-142 -2,-64 -3,-135 -2,-219 4,-85 8,-175 16,-274 7,-96 12,-193 20,-292l8 -111c-63,13 -120,21 -172,24 -53,4 -99,5 -137,3 -36,-3 -67,-10 -90,-17 -22,-9 -34,-16 -37,-24 -7,-19 -10,-34 -8,-47 3,-11 11,-21 22,-28 12,-7 29,-11 49,-14 20,-3 46,-8 74,-12 33,-6 77,-13 129,-24 53,-8 113,-22 183,-42 9,-128 14,-240 15,-338 0,-95 -6,-160 -19,-196 -8,-23 3,-37 30,-45 27,-8 62,-9 103,-4 40,6 79,17 116,36 38,19 63,43 74,72 11,32 19,79 21,140 2,64 -1,137 -5,219 78,-32 149,-69 208,-104 59,-35 106,-67 141,-93l-2 3c39,-27 72,-47 97,-54 25,-8 43,2 53,29z"/>
   <path class="fil1" d="M292 4194m2966 -709c7,-30 18,-49 32,-53 14,-5 27,-4 40,2 15,9 31,21 48,40 -8,48 -23,96 -46,140 -19,39 -50,77 -89,115 -40,37 -94,67 -162,88 -65,20 -139,28 -217,22 -79,-6 -155,-30 -229,-74 -76,-44 -143,-108 -203,-194 -63,-87 -109,-199 -140,-339 -22,-96 -33,-197 -34,-301 -2,-102 3,-205 14,-307 10,-101 25,-199 43,-296 18,-95 38,-186 55,-270l0 2c20,-95 38,-177 50,-248 12,-71 16,-123 8,-155 -5,-25 -20,-22 -42,4 -23,29 -51,75 -84,138 -33,62 -71,137 -110,223 -40,89 -80,178 -120,271 -39,92 -77,185 -111,274 -35,89 -64,168 -88,236l-22 55 -2 7c-15,79 -26,154 -37,229 -12,76 -22,147 -29,208 -8,63 -13,117 -16,163 -3,47 -1,79 4,102 6,26 12,46 17,62 6,15 12,26 18,36 6,9 10,14 17,18 7,5 11,7 15,8 11,8 22,13 29,22 8,8 15,21 19,40 1,8 -4,16 -19,25 -15,7 -35,13 -59,16 -24,1 -52,1 -81,-3 -30,-6 -60,-16 -89,-35 -28,-17 -54,-42 -79,-75 -24,-34 -41,-77 -54,-132 -11,-51 -14,-124 -10,-214 4,-91 12,-189 27,-300 15,-109 33,-224 53,-345 19,-122 39,-237 59,-350 12,-78 25,-154 38,-225 12,-71 22,-135 30,-192 8,-57 14,-105 18,-145 4,-41 4,-69 1,-83 -2,-8 -3,-12 -2,-15 -19,8 -45,34 -74,80 -29,46 -61,106 -96,176 -35,70 -72,149 -111,237 -38,88 -75,178 -109,267 -37,90 -70,176 -102,258 -32,84 -61,158 -83,220 -15,89 -31,179 -45,266 -15,88 -26,170 -36,244 -9,77 -14,146 -18,206 -3,60 0,109 8,144 9,43 18,72 27,87 7,17 14,28 21,37 8,9 13,16 21,24 6,11 10,23 14,39 6,27 3,49 -6,67 -11,19 -29,31 -51,38 -20,6 -44,5 -72,-1 -30,-8 -58,-26 -88,-49 -30,-26 -59,-60 -85,-104 -29,-43 -49,-100 -64,-167 -9,-39 -11,-91 -7,-157 2,-66 9,-142 20,-231 9,-85 22,-178 38,-282 17,-101 33,-206 50,-313 21,-120 39,-239 58,-358 18,-119 34,-233 46,-339 12,-106 19,-199 23,-285 3,-86 0,-153 -12,-204 -12,-52 -32,-75 -62,-65 -56,17 -111,56 -166,115 -54,58 -106,131 -153,213 -49,85 -92,177 -131,278 -40,102 -72,203 -96,305 -24,101 -41,195 -49,287 -7,92 -3,171 12,238 15,65 29,119 44,160 15,43 30,78 45,104 16,27 28,48 40,61 13,16 23,26 32,34 8,8 16,17 23,23 7,9 13,20 17,34 3,16 -1,33 -14,48 -11,17 -29,29 -56,37 -26,8 -60,10 -100,5 -40,-3 -82,-20 -125,-52 -43,-33 -85,-80 -126,-146 -39,-66 -73,-156 -99,-272 -21,-95 -27,-198 -18,-308 11,-110 34,-219 70,-328 35,-109 83,-216 140,-321 60,-103 127,-200 203,-287 75,-86 157,-162 246,-227 89,-65 184,-112 281,-142 44,-14 82,-17 115,-12 34,7 61,20 86,38 25,19 45,41 62,68 16,28 29,54 39,81 11,30 18,56 25,80 6,24 10,42 13,54 13,59 17,134 13,227 -6,93 -16,197 -31,310 40,-93 81,-184 124,-274 42,-89 86,-168 132,-241 44,-73 88,-132 134,-181 45,-49 91,-81 135,-95 58,-18 108,-12 151,18 40,31 71,93 92,185 3,16 5,42 3,75 -2,33 -6,74 -12,122 -6,47 -15,102 -24,162 -9,59 -20,121 -31,188 38,-88 79,-175 121,-258 42,-81 84,-154 125,-220 41,-63 82,-117 123,-160 39,-43 76,-69 110,-80 40,-13 77,-15 108,-10 30,6 57,19 80,38 22,22 41,46 55,77 14,30 25,62 33,96 11,51 8,122 -8,209 -16,88 -37,186 -64,295 -18,79 -37,163 -56,252 -19,91 -35,181 -46,274 -11,92 -19,186 -19,276 -1,89 7,176 25,257 25,112 59,197 105,259 46,62 93,106 145,133 49,29 100,43 149,45 49,0 89,-4 123,-14 63,-20 108,-45 133,-77 25,-31 41,-60 46,-86z"/>
  </g>
 </g>
</svg>
